# xmcd
#
# Track frame offsets: 
#        182
#        5115
#        17265
#        34565
#        52802
#        71680
#        91572
#        108642
#        128477
#        137402
#        161260
#        179135
#        193315
#        207332
#        238137
#
# Disc length: 3452 seconds
#
# Revision: 10
# Processed by: cddbd v1.5.2PL0 Copyright (c) Steve Scherf et al.
# Submitted via: ExactAudioCopy v0.99pb5
#
DISCID=c20d7a0f
DTITLE=OutKast - ATLiens
DYEAR=1996
DGENRE=Hip Hop
TTITLE0=You May Die (Intro)
TTITLE1=Two Dope Boyz (In a Cadillac)
TTITLE2=ATLiens
TTITLE3=Wheelz of Steel
TTITLE4=Jazzy Belle
TTITLE5=Elevators (Me and You)
TTITLE6=Ova Da Wudz
TTITLE7=Babylon
TTITLE8=Wailin'
TTITLE9=Mainstream
TTITLE10=Decatur Psalm
TTITLE11=Millennium
TTITLE12=E.T. (Extraterrestrial)
TTITLE13=13th Floor/Growing Old 
TTITLE14=Elevators (ONP 86 Mix)
EXTD=
EXTT0=
EXTT1=
EXTT2=
EXTT3=
EXTT4=
EXTT5=
EXTT6=
EXTT7=
EXTT8=
EXTT9=
EXTT10=
EXTT11=
EXTT12=
EXTT13=
EXTT14=
PLAYORDER=
